<svg xmlns="http://www.w3.org/2000/svg" viewBox="0 0 1024 1024">
  <defs>
    <radialGradient id="bg" cx="50%" cy="45%" r="70%">
      <stop offset="0" stop-color="#102a44"/>
      <stop offset="1" stop-color="#020712"/>
    </radialGradient>
    <filter id="glow" x="-60%" y="-60%" width="220%" height="220%">
      <feGaussianBlur stdDeviation="18" result="blur"/>
      <feMerge><feMergeNode in="blur"/><feMergeNode in="SourceGraphic"/></feMerge>
    </filter>
  </defs>
  <rect x="64" y="64" width="896" height="896" rx="180" fill="url(#bg)" stroke="#123b63" stroke-width="8"/>
  <g fill="none" stroke="#18d8ff" stroke-width="58" stroke-linecap="round" stroke-linejoin="round" filter="url(#glow)">
    <path d="M512 512 C350 470 260 390 300 270 C340 150 690 150 724 284 C750 390 650 470 512 512 Z"/>
    <path d="M512 512 C674 554 764 634 724 754 C684 874 334 874 300 740 C274 634 374 554 512 512 Z"/>
    <path d="M370 278 L654 278"/>
    <path d="M370 746 L654 746"/>
  </g>
  <g fill="#bff8ff" stroke="#06324f" stroke-width="14" filter="url(#glow)">
    <circle cx="512" cy="512" r="54"/>
    <circle cx="674" cy="276" r="30"/>
    <circle cx="724" cy="384" r="26"/>
    <circle cx="304" cy="392" r="26"/>
    <circle cx="304" cy="632" r="26"/>
    <circle cx="724" cy="632" r="26"/>
    <circle cx="642" cy="748" r="26"/>
  </g>
</svg>